<svg xmlns="http://www.w3.org/2000/svg" width="22.932" height="22.612" viewBox="0 0 22.932 22.612"><path d="M1.521 13.588a3.633 3.633 0 002.16.7 3.5 3.5 0 00.576-.048 3.588 3.588 0 001.856-.88l5.652 4.116a3.649 3.649 0 00-.26 2.032 3.583 3.583 0 001.472 2.4 3.633 3.633 0 002.16.7 3.5 3.5 0 00.576-.048 3.583 3.583 0 002.4-1.472 3.612 3.612 0 00.652-2.732 3.619 3.619 0 00-1.472-2.4 3.612 3.612 0 00-2.728-.656 3.588 3.588 0 00-1.856.88l-5.648-4.1a3.723 3.723 0 00.256-2.048l-.032-.16 9.008-4a3.663 3.663 0 001.648 1.248 3.665 3.665 0 001.312.24 3.79 3.79 0 001.5-.32 3.635 3.635 0 001.936-2.048 3.658 3.658 0 00-.08-2.816A3.635 3.635 0 0020.565.244a3.66 3.66 0 00-2.816.08 3.655 3.655 0 00-1.94 2.032 3.8 3.8 0 00-.176 2.06l-8.992 4a3.718 3.718 0 00-.8-.784 3.612 3.612 0 00-2.736-.656 3.583 3.583 0 00-2.4 1.472 3.612 3.612 0 00-.656 2.736 3.583 3.583 0 001.472 2.404zM17.313 2.932a2.025 2.025 0 011.088-1.152 2.235 2.235 0 01.848-.176 2.474 2.474 0 01.752.128 2.105 2.105 0 011.152 1.1 2.018 2.018 0 01.032 1.584 2.054 2.054 0 01-1.088 1.168 2.235 2.235 0 01-.848.176 2.1 2.1 0 01-1.9-1.232 2.056 2.056 0 01-.036-1.596zM2.001 9.396a1.956 1.956 0 011.36-.832 1.089 1.089 0 01.32-.032 1.948 1.948 0 011.216.4 1.956 1.956 0 01.832 1.36 1.962 1.962 0 01-.364 1.536 2.071 2.071 0 01-1.68.864 2.014 2.014 0 01-1.22-.4 2.012 2.012 0 01-.832-1.36 1.962 1.962 0 01.368-1.536zm13.136 7.456a2.014 2.014 0 011.216.4 2.093 2.093 0 01.464 2.912 2.055 2.055 0 01-1.68.848 2.014 2.014 0 01-1.216-.4 2.073 2.073 0 01-.464-2.9 2.071 2.071 0 011.68-.86z" fill="#f2ad13"/></svg>