<svg xmlns="http://www.w3.org/2000/svg" width="22" height="22" viewBox="0 0 22 22"><path data-name="パス 4818" d="M11 0A11 11 0 110 11 11 11 0 0111 0z" fill="#a2d5c2"/><path data-name="user001 - E024" d="M13.08 10.7a3.768 3.768 0 001.71-3.16A3.788 3.788 0 0011 3.75a3.788 3.788 0 00-3.79 3.79 3.768 3.768 0 001.71 3.16 5.906 5.906 0 00-3.84 5.55h1A4.916 4.916 0 0111 11.33a4.916 4.916 0 014.92 4.92h1a5.906 5.906 0 00-3.84-5.55zM8.21 7.54A2.791 2.791 0 0111 4.75a2.791 2.791 0 012.79 2.79A2.791 2.791 0 0111 10.33a2.791 2.791 0 01-2.79-2.79z" fill="#fff"/></svg>