<svg xmlns="http://www.w3.org/2000/svg" width="34.56" height="49.608" viewBox="0 0 34.56 49.608"><path d="M29.48 5.04a17.019 17.019 0 00-5.472-3.672A17.179 17.179 0 0017.28.004a17.179 17.179 0 00-6.732 1.368A17.019 17.019 0 005.08 5.04a17.276 17.276 0 00-3.708 5.508A17.179 17.179 0 00.004 17.28c0 7.38 3.6 11.052 6.192 13.752a18.912 18.912 0 011.684 1.872c1.8 2.3 2.16 4.86 2.16 8.46v8.24h14.476v-8.24c0-3.6.36-6.156 2.16-8.46a18.911 18.911 0 011.692-1.872c2.592-2.7 6.192-6.372 6.192-13.752a17.179 17.179 0 00-1.368-6.732A17.276 17.276 0 0029.48 5.04zm.5 19.512a21.318 21.318 0 01-3.636 4.5c-.684.756-1.368 1.44-1.908 2.16a12 12 0 00-2.232 4.68 20.765 20.765 0 00-.468 4.068H18.68v-16.6a5.259 5.259 0 003.82-5.036 5.224 5.224 0 00-5.22-5.22 5.224 5.224 0 00-5.22 5.22 5.259 5.259 0 003.82 5.04v16.6h-3.06a20.765 20.765 0 00-.468-4.068 12 12 0 00-2.232-4.68c-.54-.72-1.224-1.4-1.908-2.16a21.317 21.317 0 01-3.636-4.5 14.506 14.506 0 01-1.764-7.272 14.424 14.424 0 011.152-5.652 14.081 14.081 0 013.1-4.572 14.232 14.232 0 014.608-3.1 14.25 14.25 0 015.608-1.156 14.25 14.25 0 015.616 1.152 14.232 14.232 0 014.608 3.1 14.081 14.081 0 013.1 4.572 14.424 14.424 0 011.152 5.652 14.506 14.506 0 01-1.768 7.272zm-12.7-3.816a2.412 2.412 0 01-2.412-2.412 2.412 2.412 0 012.412-2.412 2.412 2.412 0 012.412 2.412 2.412 2.412 0 01-2.412 2.412zm4.428 26.068h-8.856v-4.032h8.856z" fill="#afafaf"/></svg>