<svg xmlns="http://www.w3.org/2000/svg" width="27.648" height="30.672" viewBox="0 0 27.648 30.672"><path d="M22.392 0H1.776v6.624H0v1.872h1.776v3.312H0v1.872h1.776v3.312H0v1.872h1.776v3.312H0v1.872h1.776v6.624h20.616a5.213 5.213 0 003.7-1.536 5.233 5.233 0 001.56-3.72V5.256a5.233 5.233 0 00-1.56-3.72A5.213 5.213 0 0022.392 0zm3.384 25.416a3.4 3.4 0 01-3.384 3.384H3.648v-4.752H5.4v-1.872H3.648v-3.312H5.4v-1.872H3.648V13.68H5.4v-1.872H3.648V8.496H5.4V6.624H3.648V1.872h18.744a3.4 3.4 0 013.384 3.384zm-7.992-10.2a4.54 4.54 0 001.56-3.432 4.635 4.635 0 00-4.632-4.632 4.619 4.619 0 00-4.632 4.632 4.519 4.519 0 001.536 3.432 7.483 7.483 0 00-2.352 1.7 8.148 8.148 0 00-2.208 5.664h1.868a5.986 5.986 0 015.788-6.164 6 6 0 015.784 6.168h1.872a8.17 8.17 0 00-2.232-5.664 7.483 7.483 0 00-2.352-1.704zm-3.072-6.192a2.76 2.76 0 012.76 2.76 2.776 2.776 0 01-2.76 2.76 2.76 2.76 0 01-2.76-2.76 2.745 2.745 0 012.76-2.76z" fill="#55514a"/></svg>