<svg xmlns="http://www.w3.org/2000/svg" width="16.32" height="19.648" viewBox="0 0 16.32 19.648"><path d="M1.86 17.536a2.229 2.229 0 002.22 2.112h8.16a2.229 2.229 0 002.22-2.112l.688-13.888h1.172V2.4h-4.66v-.816A1.577 1.577 0 0010.08 0H6.24a1.577 1.577 0 00-1.58 1.584V2.4H0v1.248h1.168zM5.904 1.584a.328.328 0 01.336-.336h3.84a.328.328 0 01.336.336V2.4H5.904zm7.312 15.888a.981.981 0 01-.976.928H4.08a.981.981 0 01-.976-.928L2.416 3.648h11.488zm-6.992-.864l-.384-11.2-1.248.048.384 11.184zm5.5-11.152l-1.244-.048-.384 11.2 1.248.032zm-2.94-.032H7.536v11.2h1.248z" fill="#fff"/></svg>