<svg xmlns="http://www.w3.org/2000/svg" width="46.008" height="46.008" viewBox="0 0 46.008 46.008"><path d="M23.004 46.004a23.173 23.173 0 01-8.964-1.8 24.011 24.011 0 01-7.308-4.932 24.011 24.011 0 01-4.928-7.304 23.173 23.173 0 01-1.8-8.964 23.173 23.173 0 011.8-8.964 24.011 24.011 0 014.932-7.308 24.011 24.011 0 017.304-4.928 23.173 23.173 0 018.964-1.8 23.173 23.173 0 018.964 1.8 24.011 24.011 0 017.308 4.932 24.011 24.011 0 014.928 7.304 23.173 23.173 0 011.8 8.964 23.173 23.173 0 01-1.8 8.964 24.011 24.011 0 01-4.932 7.308 24.011 24.011 0 01-7.304 4.928 23.173 23.173 0 01-8.964 1.8zm0-43.2a20.234 20.234 0 00-20.2 20.2 20.234 20.234 0 0020.2 20.2 20.234 20.234 0 0020.2-20.2 20.234 20.234 0 00-20.2-20.2zm-5.8 11.02l15.16 9.18-15.16 9.18z" fill="#afafaf"/></svg>