<svg xmlns="http://www.w3.org/2000/svg" width="18.802" height="18.9" viewBox="0 0 18.802 18.9"><path d="M16.101 8.064A8.045 8.045 0 008.051 0a8.054 8.054 0 00-8.05 8.064A8.039 8.039 0 008.05 16.1a8.012 8.012 0 005.124-1.834l4.634 4.634.993-.994-4.62-4.62a7.959 7.959 0 001.92-5.222zM8.05 14.7a6.582 6.582 0 01-2.59-.518 6.915 6.915 0 01-2.114-1.414 6.751 6.751 0 01-1.414-2.118 6.5 6.5 0 01-.531-2.586 6.664 6.664 0 01.532-2.6A6.915 6.915 0 013.346 3.35 6.56 6.56 0 015.46 1.922a6.787 6.787 0 012.59-.518 6.613 6.613 0 012.6.532 6.689 6.689 0 012.1 1.414 6.619 6.619 0 011.428 2.128 6.582 6.582 0 01.518 2.59 6.466 6.466 0 01-.518 2.576 6.248 6.248 0 01-1.414 2.1 6.451 6.451 0 01-2.11 1.438 6.65 6.65 0 01-2.604.518z" fill="#fff"/></svg>