<svg xmlns="http://www.w3.org/2000/svg" viewBox="0 0 22.9 22.6"><path d="M1.5 13.6c.6.5 1.4.7 2.2.7h.6c.7-.1 1.3-.4 1.9-.9l5.7 4.1c-.3.6-.4 1.3-.3 2 .1 1 .7 1.8 1.5 2.4.6.5 1.4.7 2.2.7h.6c1-.1 1.8-.7 2.4-1.5.6-.8.8-1.8.7-2.7-.1-1-.7-1.8-1.5-2.4-.8-.6-1.8-.8-2.7-.7-.7.1-1.3.4-1.9.9l-5.6-4.1c.3-.6.4-1.4.3-2v-.2l9-4c.4.6 1 1 1.6 1.2.4.2.9.2 1.3.2.5 0 1-.1 1.5-.3.9-.4 1.6-1.1 1.9-2 .1-.9.1-1.9-.3-2.8-.4-.9-1.1-1.6-2-1.9-.9-.4-1.9-.3-2.8.1-.9.4-1.6 1.1-1.9 2-.2.7-.3 1.4-.2 2.1l-9 4c-.3-.4-.6-.6-.9-.9-.7-.5-1.7-.8-2.7-.6-1 .1-1.8.7-2.4 1.5-.6.7-.8 1.7-.7 2.7.2 1 .7 1.8 1.5 2.4zM17.3 2.9c.2-.5.6-.9 1.1-1.2.3-.1.6-.2.8-.2.3 0 .5 0 .8.1.5.2.9.6 1.2 1.1.2.5.2 1.1 0 1.6s-.6.9-1.1 1.2c-.3.1-.6.2-.8.2-.8 0-1.6-.5-1.9-1.2-.3-.5-.3-1.1-.1-1.6zM2 9.4c.3-.5.8-.8 1.4-.8h.3c.4 0 .9.1 1.2.4.5.3.8.8.8 1.4.1.5 0 1.1-.4 1.5-.4.5-1 .9-1.7.9-.4 0-.9-.1-1.2-.4-.4-.4-.7-.9-.8-1.5-.1-.5.1-1.1.4-1.5zm13.1 7.5c.4 0 .9.1 1.2.4.9.7 1.1 2 .5 2.9-.4.5-1 .9-1.7.8-.4 0-.9-.1-1.2-.4-.9-.7-1.1-2-.5-2.9.4-.5 1.1-.8 1.7-.8z" fill="#fff"/></svg>