<svg xmlns="http://www.w3.org/2000/svg" width="45.63" height="50.7" viewBox="0 0 45.63 50.7"><path d="M43.015 2.613A9.071 9.071 0 0036.658 0H2.728v10.764h-2.73v3.9h2.73v4.524h-2.73v3.9h2.73v4.524h-2.73v3.9h2.73v4.524h-2.73v3.9h2.73V50.7h33.93a9.071 9.071 0 006.357-2.613 9.071 9.071 0 002.613-6.357V8.97a9.071 9.071 0 00-2.613-6.357zM41.73 41.73a5.06 5.06 0 01-5.07 5.07H6.63v-6.864h2.73v-3.9H6.63v-4.524h2.73v-3.9H6.63v-4.524h2.73v-3.9H6.63v-4.524h2.73v-3.9H6.63V3.9h30.03a5.06 5.06 0 015.07 5.07zM29.952 25.038a7.828 7.828 0 002.184-5.46 7.964 7.964 0 00-7.956-7.956 7.964 7.964 0 00-7.956 7.956 7.828 7.828 0 002.184 5.46 12.617 12.617 0 00-3.354 2.574 13.789 13.789 0 00-3.744 9.516h3.9c0-5.3 4.017-9.594 8.97-9.594s8.97 4.29 8.97 9.594h3.9a13.789 13.789 0 00-3.744-9.516 12.617 12.617 0 00-3.354-2.574zm-5.772-9.516a4.053 4.053 0 014.056 4.056 4.078 4.078 0 01-4.056 4.056 4.078 4.078 0 01-4.056-4.056 4.053 4.053 0 014.056-4.056z" fill="#fff"/></svg>