<svg xmlns="http://www.w3.org/2000/svg" width="30.005" height="20.094" viewBox="0 0 30.005 20.094"><path d="M30.003 5.814L15.012 0 .003 5.814l3.706 1.581v8.092a2.393 2.393 0 00-1.53 2.227 2.387 2.387 0 002.38 2.38 2.376 2.376 0 002.38-2.38 2.369 2.369 0 00-1.536-2.227V8.126l2.3.969v5.252l.272.255a10.554 10.554 0 007.038 2.7 10.479 10.479 0 007.021-2.7l.289-.255V9.094zM15.012 1.836l10.491 4.046-10.491 4.488L4.503 5.882zm5.61 11.747a8.772 8.772 0 01-5.61 2.023 8.738 8.738 0 01-5.609-2.023V9.809l5.61 2.4 5.61-2.4zM4.556 18.394a.682.682 0 01-.68-.68.682.682 0 01.68-.68.671.671 0 01.68.68.671.671 0 01-.68.68z" fill="#6f729e"/></svg>