<svg xmlns="http://www.w3.org/2000/svg" width="23.371" height="23.364" viewBox="0 0 23.371 23.364"><path data-name="edit004 - E07F" d="M22.48 3.69L19.689.882A3.035 3.035 0 0017.529 0a3.046 3.046 0 00-2.178.882L2.5 13.752a.893.893 0 00-.234.4L.034 22.234a.9.9 0 00.234.882.9.9 0 00.63.252 1.026 1.026 0 00.234-.018l8.082-2.232a.967.967 0 00.4-.234l12.87-12.87a3.064 3.064 0 00-.004-4.324zm-1.278 3.042L8.98 18.972l-4.572-4.59L16.63 2.16a1.265 1.265 0 01.9-.36 1.254 1.254 0 01.882.36l2.79 2.79a1.239 1.239 0 010 1.782zM3.58 16.11l3.672 3.672-5.058 1.4z" fill="#fff"/></svg>