<svg xmlns="http://www.w3.org/2000/svg" width="40.256" height="42.5" viewBox="0 0 40.256 42.5"><path d="M27.2 23.63a12.811 12.811 0 005.814-10.744A12.878 12.878 0 0020.128 0 12.878 12.878 0 007.242 12.886a12.811 12.811 0 005.814 10.744A20.081 20.081 0 000 42.5h3.4a16.716 16.716 0 0116.728-16.728A16.716 16.716 0 0136.856 42.5h3.4A20.081 20.081 0 0027.2 23.63zM10.642 12.886A9.49 9.49 0 0120.128 3.4a9.49 9.49 0 019.486 9.486 9.49 9.49 0 01-9.486 9.486 9.49 9.49 0 01-9.486-9.486z" fill="#fff"/></svg>