<svg data-name="グループ 1" xmlns="http://www.w3.org/2000/svg" width="151.269" height="26.002" viewBox="0 0 151.269 26.002"><rect data-name="長方形 1" width="13.13" height="3.283" rx="1.642" transform="translate(17.388 14.302)" fill="#ffaf00"/><rect data-name="長方形 2" width="13.876" height="3.123" rx="1.562" transform="translate(0 6.621)" fill="#e55d69"/><path data-name="パス 1" d="M.558 12.868a.559.559 0 00-.558.558v2.008a.559.559 0 00.558.558h9.637a.559.559 0 01.557.558v4.477a1.554 1.554 0 01-.394.952l-.5.5a1.55 1.55 0 01-.952.394H.561a.559.559 0 00-.558.558v2.009a.559.559 0 00.558.558h9.638a1.551 1.551 0 00.952-.395l2.335-2.335a1.553 1.553 0 00.394-.952v-8.894a.559.559 0 00-.558-.558z" fill="#e55d69"/><path data-name="長方形 3" d="M33.772 6.621h3.815a1.561 1.561 0 011.561 1.561 1.562 1.562 0 01-1.562 1.562h-3.814a1.562 1.562 0 01-1.562-1.561 1.562 1.562 0 011.562-1.562z" fill="#4bab7a"/><path data-name="パス 2" d="M43.521 8.614a.559.559 0 00-.558.558v11.857a1.553 1.553 0 01-.394.952l-.5.5a1.55 1.55 0 01-.952.394h-8.345a.559.559 0 00-.557.558v2.009a.559.559 0 00.557.558h9.638a1.551 1.551 0 00.952-.395l2.335-2.335a1.552 1.552 0 00.394-.952V9.168a.559.559 0 00-.558-.558z" fill="#4bab7a"/><path data-name="パス 3" d="M118.663 6.621a.559.559 0 00-.558.558V10.9a1.549 1.549 0 01-.4.951l-.946.943a1.43 1.43 0 01-.854.394.517.517 0 00-.459.558v2.008a.559.559 0 00.558.558h1.093a1.555 1.555 0 00.952-.394l2.78-2.77a1.548 1.548 0 00.395-.951V10.3a.559.559 0 01.557-.558h5.688a.559.559 0 01.557.558v10.72a1.556 1.556 0 01-.394.953l-.5.5a1.55 1.55 0 01-.952.395h-7.518a.559.559 0 00-.558.558v2.008a.559.559 0 00.558.558h8.811a1.553 1.553 0 00.952-.395l2.334-2.335a1.551 1.551 0 00.395-.952V7.179a.559.559 0 00-.558-.558z" fill="#4bab7a"/><path data-name="パス 4" d="M89.078 7.015a1.553 1.553 0 00-.952-.394h-9.638a.559.559 0 00-.558.558v2.008a.559.559 0 00.558.558h8.344a1.553 1.553 0 01.952.395l.5.5a1.551 1.551 0 01.394.952V22.32a.559.559 0 01-.558.558h-9.637a.559.559 0 00-.558.558v2.009a.559.559 0 00.558.558h12.766a.559.559 0 00.558-.558V10.3a1.553 1.553 0 00-.394-.952z" fill="#e55d69"/><path data-name="パス 5" d="M111.155 18.115a1.552 1.552 0 01-.952-.394l-3.219-3.218a.559.559 0 010-.789l1.785-1.785.395-.394.4-.394 1.42-1.42a.559.559 0 000-.789l-1.916-1.917a1.553 1.553 0 00-.952-.394h-1.57a.559.559 0 01-.558-.558V4.946a.559.559 0 00-.558-.558h-2.009a.559.559 0 00-.558.558v1.117a.56.56 0 01-.558.558h-5.224a.559.559 0 00-.558.558v2.008a.559.559 0 00.558.558h8.9c.307 0 .38.178.163.395l-7.584 7.582a1.553 1.553 0 01-.952.394h-.528a.56.56 0 00-.558.558v2.008a.56.56 0 00.558.558h1.821a1.554 1.554 0 00.952-.394l2.614-2.613c.217-.217.395-.143.395.164v7.042a.559.559 0 00.558.558h2.008a.559.559 0 00.558-.558v-6.96c0-.307.177-.38.395-.164l2.531 2.531a1.553 1.553 0 00.952.394h1.657a.56.56 0 00.558-.558v-2.008a.56.56 0 00-.558-.558z" fill="#ffaf00"/><path data-name="パス 6" d="M69.155 6.419h-.85a.561.561 0 01-.56-.56 3.892 3.892 0 00-3.888-3.887.56.56 0 01-.559-.561V.56a.56.56 0 01.559-.56 5.866 5.866 0 015.859 5.859.56.56 0 01-.56.56" fill="#626ba0"/><path data-name="パス 7" d="M65.892 8.006h-.85a.561.561 0 01-.561-.561 2.213 2.213 0 00-2.211-2.211.561.561 0 01-.56-.56v-.851a.561.561 0 01.56-.56 4.187 4.187 0 014.182 4.182.561.561 0 01-.56.561" fill="#626ba0"/><path data-name="パス 8" d="M62.789 26a.343.343 0 00.339-.513l-3.573-8.4a1.3 1.3 0 01.051-1l3.216-5.845a.788.788 0 00-.126-.883l-2.334-2.335a1.55 1.55 0 00-.952-.394h-9.638a.559.559 0 00-.558.558v2.008a.559.559 0 00.558.558h8.344a1.353 1.353 0 01.832.275.7.7 0 01.006.763l-6.382 11.6a1.043 1.043 0 01-.826.489h-1.974a.559.559 0 00-.558.558v2.008a.559.559 0 00.558.558h3.82a1.043 1.043 0 00.827-.489l2.734-4.97c.148-.269.367-.258.487.025l2.093 4.921a.916.916 0 00.776.513z" fill="#626ba0"/><path data-name="パス 9" d="M151.269 14.86a.559.559 0 00-.557-.558h-8.731a.559.559 0 01-.558-.558V7.179a.56.56 0 00-.558-.558h-2.168a.559.559 0 00-.558.558v18.258a.559.559 0 00.558.558h2.168a.56.56 0 00.558-.558v-7.294a.559.559 0 01.558-.558h8.731a.559.559 0 00.557-.558z" fill="#626ba0"/></svg>