<svg data-name="コンポーネント 188 – 6" xmlns="http://www.w3.org/2000/svg" width="68" height="68" viewBox="0 0 68 68"><circle data-name="楕円形 21" cx="34" cy="34" r="34" fill="#4b412d" opacity=".4"/><path d="M46.317 28.836l-1.633 1.633-10.695-10.695-10.672 10.7-1.633-1.633 12.305-12.31z" fill="#fff"/><path data-name="パス 4744" d="M21.741 42.51h7.02v1.2h-2.795V52h-1.43v-8.294h-2.795zm9 1.2a4.5 4.5 0 013.402-1.33 4.5 4.5 0 013.406 1.326 4.907 4.907 0 011.274 3.549 4.907 4.907 0 01-1.274 3.545 4.5 4.5 0 01-3.406 1.33 4.5 4.5 0 01-3.406-1.33 4.907 4.907 0 01-1.274-3.545 4.907 4.907 0 011.274-3.549zm1.059 6.255a2.978 2.978 0 002.34.995 2.978 2.978 0 002.34-.995 3.934 3.934 0 00.884-2.71 3.934 3.934 0 00-.884-2.711 2.978 2.978 0 00-2.34-.995 2.978 2.978 0 00-2.34.995 3.934 3.934 0 00-.884 2.711 3.934 3.934 0 00.884 2.71zm10-1.54V52h-1.43v-9.425a20.041 20.041 0 012.86-.195 4.188 4.188 0 012.717.76 2.646 2.646 0 01.923 2.16q0 3.185-3.64 3.185-.689.005-1.43-.06zm0-1.157a8.216 8.216 0 001.3.1 2.706 2.706 0 001.755-.5 1.751 1.751 0 00.611-1.437 1.73 1.73 0 00-.6-1.424 2.748 2.748 0 00-1.766-.483 8.181 8.181 0 00-1.3.091z" fill="#fff"/></svg>