<svg xmlns="http://www.w3.org/2000/svg" width="46.058" height="46.008" viewBox="0 0 46.058 46.008">
  <path id="icn_edit" d="M21.762-57.78H21.8A4.306,4.306,0,0,0,18.774-59a4.285,4.285,0,0,0-2.988,1.224l-6.3,6.3H-23.022V-13H15.534V-45.54L21.8-51.8A4.183,4.183,0,0,0,21.762-57.78Zm-1.98,3.96-23,23.04H-5.13v-2.088L17.8-55.764a1.173,1.173,0,0,1,.972-.432,1.2,1.2,0,0,1,1.008.432h.036A1.339,1.339,0,0,1,19.782-53.82ZM12.726-15.8h-32.94V-48.672H6.678L-7.938-34.02v6.048H-2.07l14.8-14.76Z" transform="translate(23.022 59.004)" fill="#afafaf"/>
</svg>
