<svg xmlns="http://www.w3.org/2000/svg" width="22.932" height="22.612" viewBox="0 0 22.932 22.612">
  <path id="icn_links" d="M-9.944-13.728a3.633,3.633,0,0,0,2.16.7,3.5,3.5,0,0,0,.576-.048,3.588,3.588,0,0,0,1.856-.88L.3-9.84A3.649,3.649,0,0,0,.04-7.808a3.583,3.583,0,0,0,1.472,2.4,3.633,3.633,0,0,0,2.16.7,3.5,3.5,0,0,0,.576-.048,3.583,3.583,0,0,0,2.4-1.472A3.612,3.612,0,0,0,7.3-8.96a3.619,3.619,0,0,0-1.472-2.4A3.612,3.612,0,0,0,3.1-12.016a3.588,3.588,0,0,0-1.856.88l-5.648-4.1a3.723,3.723,0,0,0,.256-2.048l-.032-.16,9.008-4a3.663,3.663,0,0,0,1.648,1.248,3.665,3.665,0,0,0,1.312.24,3.79,3.79,0,0,0,1.5-.32,3.635,3.635,0,0,0,1.936-2.048,3.658,3.658,0,0,0-.08-2.816A3.635,3.635,0,0,0,9.1-27.072a3.66,3.66,0,0,0-2.816.08A3.655,3.655,0,0,0,4.344-24.96,3.8,3.8,0,0,0,4.168-22.9l-8.992,4a3.718,3.718,0,0,0-.8-.784,3.612,3.612,0,0,0-2.736-.656,3.583,3.583,0,0,0-2.4,1.472,3.612,3.612,0,0,0-.656,2.736A3.583,3.583,0,0,0-9.944-13.728ZM5.848-24.384a2.025,2.025,0,0,1,1.088-1.152,2.235,2.235,0,0,1,.848-.176,2.474,2.474,0,0,1,.752.128,2.105,2.105,0,0,1,1.152,1.1A2.018,2.018,0,0,1,9.72-22.9a2.054,2.054,0,0,1-1.088,1.168,2.235,2.235,0,0,1-.848.176,2.1,2.1,0,0,1-1.9-1.232A2.056,2.056,0,0,1,5.848-24.384ZM-9.464-17.92a1.956,1.956,0,0,1,1.36-.832,1.089,1.089,0,0,1,.32-.032,1.948,1.948,0,0,1,1.216.4,1.956,1.956,0,0,1,.832,1.36A1.962,1.962,0,0,1-6.1-15.488a2.071,2.071,0,0,1-1.68.864A2.014,2.014,0,0,1-9-15.024a2.012,2.012,0,0,1-.832-1.36A1.962,1.962,0,0,1-9.464-17.92ZM3.672-10.464a2.014,2.014,0,0,1,1.216.4,2.093,2.093,0,0,1,.464,2.912,2.055,2.055,0,0,1-1.68.848,2.014,2.014,0,0,1-1.216-.4,2.073,2.073,0,0,1-.464-2.9A2.071,2.071,0,0,1,3.672-10.464Z" transform="translate(11.465 27.316)" fill="#f2ad13"/>
</svg>
