<svg xmlns="http://www.w3.org/2000/svg" width="46.008" height="46.008" viewBox="0 0 46.008 46.008">
  <path id="icn_play" d="M0-13a23.173,23.173,0,0,1-8.964-1.8,24.011,24.011,0,0,1-7.308-4.932A24.011,24.011,0,0,1-21.2-27.036,23.173,23.173,0,0,1-23-36a23.173,23.173,0,0,1,1.8-8.964,24.011,24.011,0,0,1,4.932-7.308A24.011,24.011,0,0,1-8.964-57.2,23.173,23.173,0,0,1,0-59a23.173,23.173,0,0,1,8.964,1.8,24.011,24.011,0,0,1,7.308,4.932A24.011,24.011,0,0,1,21.2-44.964,23.173,23.173,0,0,1,23-36a23.173,23.173,0,0,1-1.8,8.964,24.011,24.011,0,0,1-4.932,7.308A24.011,24.011,0,0,1,8.964-14.8,23.173,23.173,0,0,1,0-13ZM0-56.2A20.234,20.234,0,0,0-20.2-36,20.234,20.234,0,0,0,0-15.8,20.234,20.234,0,0,0,20.2-36,20.234,20.234,0,0,0,0-56.2ZM-5.8-45.18,9.36-36-5.8-26.82Z" transform="translate(23.004 59.004)" fill="#afafaf"/>
</svg>
