<svg xmlns="http://www.w3.org/2000/svg" width="31.694" height="28.543" viewBox="0 0 31.694 28.543">
  <path id="icn_box_blue" d="M-15.847-28.658h1.886V-8.74H13.961V-28.658h1.886v-8.625H-15.847Zm1.794-6.831H14.053v5.037H-14.053Zm26.22,24.955H-12.167V-28.658H12.167ZM-4.347-20.286H4.347a2.753,2.753,0,0,0,2.76-2.76,2.753,2.753,0,0,0-2.76-2.76H-4.347a2.753,2.753,0,0,0-2.76,2.76A2.753,2.753,0,0,0-4.347-20.286Zm0-3.726H4.347a.957.957,0,0,1,.966.966.957.957,0,0,1-.966.966H-4.347a.957.957,0,0,1-.966-.966A.957.957,0,0,1-4.347-24.012Z" transform="translate(15.847 37.283)" fill="#5ca1cb"/>
</svg>
