<svg xmlns="http://www.w3.org/2000/svg" width="30.005" height="20.094" viewBox="0 0 30.005 20.094">
  <path id="icn_arms" d="M15-21.233.009-27.047-15-21.233l3.706,1.581v8.092a2.393,2.393,0,0,0-1.53,2.227,2.387,2.387,0,0,0,2.38,2.38,2.376,2.376,0,0,0,2.38-2.38A2.369,2.369,0,0,0-9.6-11.56v-7.361l2.3.969V-12.7l.272.255a10.554,10.554,0,0,0,7.038,2.7,10.479,10.479,0,0,0,7.021-2.7l.289-.255v-5.253ZM.009-25.211,10.5-21.165.009-16.677-10.5-21.165Zm5.61,11.747a8.772,8.772,0,0,1-5.61,2.023A8.738,8.738,0,0,1-5.6-13.464v-3.774l5.61,2.4,5.61-2.4ZM-10.447-8.653a.682.682,0,0,1-.68-.68.682.682,0,0,1,.68-.68.671.671,0,0,1,.68.68A.671.671,0,0,1-10.447-8.653Z" transform="translate(15.003 27.047)" fill="#6f729e"/>
</svg>
