<svg xmlns="http://www.w3.org/2000/svg" width="18.802" height="18.9" viewBox="0 0 18.802 18.9">
  <path id="icn_search_wht" d="M6.7-15.386a8.045,8.045,0,0,0-8.05-8.064A8.054,8.054,0,0,0-9.4-15.386,8.039,8.039,0,0,0-1.351-7.35,8.012,8.012,0,0,0,3.773-9.184L8.407-4.55,9.4-5.544l-4.62-4.62A7.959,7.959,0,0,0,6.7-15.386ZM-1.351-8.75a6.582,6.582,0,0,1-2.59-.518,6.915,6.915,0,0,1-2.114-1.414A6.751,6.751,0,0,1-7.469-12.8,6.5,6.5,0,0,1-8-15.386a6.664,6.664,0,0,1,.532-2.6A6.915,6.915,0,0,1-6.055-20.1a6.56,6.56,0,0,1,2.114-1.428,6.787,6.787,0,0,1,2.59-.518,6.613,6.613,0,0,1,2.6.532,6.689,6.689,0,0,1,2.1,1.414,6.619,6.619,0,0,1,1.428,2.128,6.582,6.582,0,0,1,.518,2.59,6.466,6.466,0,0,1-.518,2.576,6.248,6.248,0,0,1-1.414,2.1A6.451,6.451,0,0,1,1.253-9.268,6.65,6.65,0,0,1-1.351-8.75Z" transform="translate(9.401 23.45)" fill="#fff"/>
</svg>
