<svg xmlns="http://www.w3.org/2000/svg" width="34.56" height="49.608" viewBox="0 0 34.56 49.608">
  <path id="icn_bulb" d="M12.2-55.764a17.019,17.019,0,0,0-5.472-3.672A17.179,17.179,0,0,0,0-60.8a17.179,17.179,0,0,0-6.732,1.368A17.019,17.019,0,0,0-12.2-55.764a17.276,17.276,0,0,0-3.708,5.508,17.179,17.179,0,0,0-1.368,6.732c0,7.38,3.6,11.052,6.192,13.752A18.912,18.912,0,0,1-9.4-27.9c1.8,2.3,2.16,4.86,2.16,8.46V-11.2H7.236V-19.44c0-3.6.36-6.156,2.16-8.46a18.911,18.911,0,0,1,1.692-1.872c2.592-2.7,6.192-6.372,6.192-13.752a17.179,17.179,0,0,0-1.368-6.732A17.276,17.276,0,0,0,12.2-55.764Zm.5,19.512a21.318,21.318,0,0,1-3.636,4.5c-.684.756-1.368,1.44-1.908,2.16a12,12,0,0,0-2.232,4.68,20.765,20.765,0,0,0-.468,4.068H1.4v-16.6A5.259,5.259,0,0,0,5.22-42.48,5.224,5.224,0,0,0,0-47.7a5.224,5.224,0,0,0-5.22,5.22A5.259,5.259,0,0,0-1.4-37.44v16.6h-3.06a20.765,20.765,0,0,0-.468-4.068,12,12,0,0,0-2.232-4.68c-.54-.72-1.224-1.4-1.908-2.16a21.317,21.317,0,0,1-3.636-4.5,14.506,14.506,0,0,1-1.764-7.272,14.424,14.424,0,0,1,1.152-5.652,14.081,14.081,0,0,1,3.1-4.572,14.232,14.232,0,0,1,4.608-3.1A14.25,14.25,0,0,1,0-58a14.25,14.25,0,0,1,5.616,1.152,14.232,14.232,0,0,1,4.608,3.1,14.081,14.081,0,0,1,3.1,4.572,14.424,14.424,0,0,1,1.152,5.652A14.506,14.506,0,0,1,12.708-36.252ZM0-40.068A2.412,2.412,0,0,1-2.412-42.48,2.412,2.412,0,0,1,0-44.892,2.412,2.412,0,0,1,2.412-42.48,2.412,2.412,0,0,1,0-40.068ZM4.428-14H-4.428v-4.032H4.428Z" transform="translate(17.28 60.804)" fill="#afafaf"/>
</svg>
