<svg xmlns="http://www.w3.org/2000/svg" width="19.191" height="19.17" viewBox="0 0 19.191 19.17">
  <path id="icn_edit_white" d="M9.068-24.075h.015a1.794,1.794,0,0,0-1.26-.51,1.785,1.785,0,0,0-1.245.51L3.953-21.45H-9.592V-5.415H6.473v-13.56l2.61-2.61A1.743,1.743,0,0,0,9.068-24.075Zm-.825,1.65-9.585,9.6h-.8v-.87l9.555-9.54a.489.489,0,0,1,.405-.18.5.5,0,0,1,.42.18h.015A.558.558,0,0,1,8.243-22.425ZM5.3-6.585H-8.422v-13.7H2.783l-6.09,6.105v2.52H-.862L5.3-17.805Z" transform="translate(9.593 24.585)" fill="#fff"/>
</svg>
