<svg xmlns="http://www.w3.org/2000/svg" width="16.32" height="19.648" viewBox="0 0 16.32 19.648">
  <path id="icn_delete" d="M-6.3-8.288A2.229,2.229,0,0,0-4.08-6.176H4.08A2.229,2.229,0,0,0,6.3-8.288l.688-13.888H8.16v-1.248H3.5v-.816A1.577,1.577,0,0,0,1.92-25.824H-1.92A1.577,1.577,0,0,0-3.5-24.24v.816H-8.16v1.248h1.168ZM-2.256-24.24a.328.328,0,0,1,.336-.336H1.92a.328.328,0,0,1,.336.336v.816H-2.256ZM5.056-8.352a.981.981,0,0,1-.976.928H-4.08a.981.981,0,0,1-.976-.928l-.688-13.824H5.744Zm-6.992-.864-.384-11.2-1.248.048.384,11.184Zm5.5-11.152L2.32-20.416l-.384,11.2,1.248.032ZM.624-20.4H-.624V-9.2H.624Z" transform="translate(8.16 25.824)" fill="#fff"/>
</svg>
