<svg xmlns="http://www.w3.org/2000/svg" width="22" height="22" viewBox="0 0 22 22">
  <g id="icn_user_grn" transform="translate(-123 -241)">
    <path id="パス_4818" data-name="パス 4818" d="M11,0A11,11,0,1,1,0,11,11,11,0,0,1,11,0Z" transform="translate(123 241)" fill="#a2d5c2"/>
    <path id="user001_-_E024" data-name="user001 - E024" d="M2.08-9.3a3.768,3.768,0,0,0,1.71-3.16A3.788,3.788,0,0,0,0-16.25a3.788,3.788,0,0,0-3.79,3.79A3.768,3.768,0,0,0-2.08-9.3,5.906,5.906,0,0,0-5.92-3.75h1A4.916,4.916,0,0,1,0-8.67,4.916,4.916,0,0,1,4.92-3.75h1A5.906,5.906,0,0,0,2.08-9.3Zm-4.87-3.16A2.791,2.791,0,0,1,0-15.25a2.791,2.791,0,0,1,2.79,2.79A2.791,2.791,0,0,1,0-9.67,2.791,2.791,0,0,1-2.79-12.46Z" transform="translate(134 261)" fill="#fff"/>
  </g>
</svg>
