<?xml version="1.0" encoding="utf-8"?>
<!-- Generator: Adobe Illustrator 25.3.1, SVG Export Plug-In . SVG Version: 6.00 Build 0)  -->
<svg version="1.1" id="レイヤー_1" xmlns="http://www.w3.org/2000/svg" xmlns:xlink="http://www.w3.org/1999/xlink" x="0px"
	 y="0px" viewBox="0 0 30 20.1" style="enable-background:new 0 0 30 20.1;" xml:space="preserve">
<style type="text/css">
	.st0{fill:#FFFFFF;}
</style>
<path id="icn_arms" class="st0" d="M30,5.8L15,0L0,5.8l3.7,1.6v8.1c-0.9,0.4-1.5,1.2-1.5,2.2c0,1.3,1.1,2.4,2.4,2.4
	c1.3,0,2.4-1.1,2.4-2.4c0,0,0,0,0,0c0-1-0.6-1.9-1.5-2.2V8.1l2.3,1v5.3L8,14.6c1.9,1.7,4.4,2.7,7,2.7c2.6,0,5.1-1,7-2.7l0.3-0.3V9.1
	L30,5.8z M15,1.8l10.5,4L15,10.4L4.5,5.9L15,1.8z M20.6,13.6c-1.6,1.3-3.6,2-5.6,2c-2,0-4-0.7-5.6-2V9.8l5.6,2.4l5.6-2.4L20.6,13.6z
	 M4.6,18.4c-0.4,0-0.7-0.3-0.7-0.7c0-0.4,0.3-0.7,0.7-0.7c0.4,0,0.7,0.3,0.7,0.7c0,0,0,0,0,0C5.2,18.1,4.9,18.4,4.6,18.4
	C4.6,18.4,4.6,18.4,4.6,18.4z"/>
</svg>
