<svg xmlns="http://www.w3.org/2000/svg" width="23.371" height="23.364" viewBox="0 0 23.371 23.364">
  <path id="edit004_-_E07F" data-name="edit004 - E07F" d="M10.791-25.992,8-28.8a3.035,3.035,0,0,0-2.16-.882,3.046,3.046,0,0,0-2.178.882L-9.189-15.93a.893.893,0,0,0-.234.4l-2.232,8.082a.9.9,0,0,0,.234.882.9.9,0,0,0,.63.252,1.026,1.026,0,0,0,.234-.018l8.082-2.232a.967.967,0,0,0,.4-.234l12.87-12.87A3.064,3.064,0,0,0,10.791-25.992ZM9.513-22.95-2.709-10.71-7.281-15.3,4.941-27.522a1.265,1.265,0,0,1,.9-.36,1.254,1.254,0,0,1,.882.36l2.79,2.79A1.239,1.239,0,0,1,9.513-22.95ZM-8.109-13.572-4.437-9.9-9.495-8.5Z" transform="translate(11.689 29.682)" fill="#fff"/>
</svg>
