<svg xmlns="http://www.w3.org/2000/svg" width="40.256" height="42.5" viewBox="0 0 40.256 42.5">
  <path id="icn_user1" d="M7.072-31.62a12.811,12.811,0,0,0,5.814-10.744A12.878,12.878,0,0,0,0-55.25,12.878,12.878,0,0,0-12.886-42.364,12.811,12.811,0,0,0-7.072-31.62,20.081,20.081,0,0,0-20.128-12.75h3.4A16.716,16.716,0,0,1,0-29.478,16.716,16.716,0,0,1,16.728-12.75h3.4A20.081,20.081,0,0,0,7.072-31.62ZM-9.486-42.364A9.49,9.49,0,0,1,0-51.85a9.49,9.49,0,0,1,9.486,9.486A9.49,9.49,0,0,1,0-32.878,9.49,9.49,0,0,1-9.486-42.364Z" transform="translate(20.128 55.25)" fill="#fff"/>
</svg>
