<svg xmlns="http://www.w3.org/2000/svg" width="43.884" height="50.256" viewBox="0 0 43.884 50.256">
  <path id="icn_layer" d="M14.994-40.86l6.948-4.9L.018-61.128l-21.96,15.372,6.948,4.9L-21.942-36l6.948,4.86-6.948,4.9L.018-10.872,21.942-26.244l-6.948-4.9L21.942-36Zm-32.04-4.9L.018-57.672,17.046-45.756.018-33.8ZM17.046-36,.018-24.048-17.046-36l4.5-3.168L.018-30.384l12.528-8.784Zm0,9.756L.018-14.328-17.046-26.244l4.5-3.168L.018-20.628l12.528-8.784Z" transform="translate(21.942 61.128)" fill="#afafaf"/>
</svg>
