<?xml version="1.0" encoding="utf-8"?>
<!-- Generator: Adobe Illustrator 25.3.1, SVG Export Plug-In . SVG Version: 6.00 Build 0)  -->
<svg version="1.1" id="レイヤー_1" xmlns="http://www.w3.org/2000/svg" xmlns:xlink="http://www.w3.org/1999/xlink" x="0px"
	 y="0px" viewBox="0 0 22.9 22.6" style="enable-background:new 0 0 22.9 22.6;" xml:space="preserve">
<style type="text/css">
	.st0{fill:#FFFFFF;}
</style>
<path id="icn_links" class="st0" d="M1.5,13.6c0.6,0.5,1.4,0.7,2.2,0.7c0.2,0,0.4,0,0.6,0c0.7-0.1,1.3-0.4,1.9-0.9l5.7,4.1
	c-0.3,0.6-0.4,1.3-0.3,2c0.1,1,0.7,1.8,1.5,2.4c0.6,0.5,1.4,0.7,2.2,0.7c0.2,0,0.4,0,0.6,0c1-0.1,1.8-0.7,2.4-1.5
	c0.6-0.8,0.8-1.8,0.7-2.7c-0.1-1-0.7-1.8-1.5-2.4c-0.8-0.6-1.8-0.8-2.7-0.7c-0.7,0.1-1.3,0.4-1.9,0.9l-5.6-4.1
	c0.3-0.6,0.4-1.4,0.3-2l0-0.2l9-4c0.4,0.6,1,1,1.6,1.2c0.4,0.2,0.9,0.2,1.3,0.2c0.5,0,1-0.1,1.5-0.3c0.9-0.4,1.6-1.1,1.9-2
	C23,4.1,23,3.1,22.6,2.2c-0.4-0.9-1.1-1.6-2-1.9c-0.9-0.4-1.9-0.3-2.8,0.1c-0.9,0.4-1.6,1.1-1.9,2c-0.2,0.7-0.3,1.4-0.2,2.1l-9,4
	C6.4,8.1,6.1,7.9,5.8,7.6C5.1,7.1,4.1,6.8,3.1,7c-1,0.1-1.8,0.7-2.4,1.5C0.1,9.2-0.1,10.2,0,11.2C0.2,12.2,0.7,13,1.5,13.6z
	 M17.3,2.9c0.2-0.5,0.6-0.9,1.1-1.2c0.3-0.1,0.6-0.2,0.8-0.2c0.3,0,0.5,0,0.8,0.1c0.5,0.2,0.9,0.6,1.2,1.1c0.2,0.5,0.2,1.1,0,1.6
	c-0.2,0.5-0.6,0.9-1.1,1.2c-0.3,0.1-0.6,0.2-0.8,0.2c-0.8,0-1.6-0.5-1.9-1.2C17.1,4,17.1,3.4,17.3,2.9z M2,9.4
	c0.3-0.5,0.8-0.8,1.4-0.8c0.1,0,0.2,0,0.3,0c0.4,0,0.9,0.1,1.2,0.4c0.5,0.3,0.8,0.8,0.8,1.4c0.1,0.5,0,1.1-0.4,1.5
	c-0.4,0.5-1,0.9-1.7,0.9c-0.4,0-0.9-0.1-1.2-0.4C2,12,1.7,11.5,1.6,10.9C1.5,10.4,1.7,9.8,2,9.4z M15.1,16.9c0.4,0,0.9,0.1,1.2,0.4
	c0.9,0.7,1.1,2,0.5,2.9c-0.4,0.5-1,0.9-1.7,0.8c-0.4,0-0.9-0.1-1.2-0.4c-0.9-0.7-1.1-2-0.5-2.9c0,0,0,0,0,0
	C13.8,17.2,14.5,16.9,15.1,16.9z"/>
</svg>
