<svg xmlns="http://www.w3.org/2000/svg" width="27.648" height="30.672" viewBox="0 0 27.648 30.672">
  <path id="icn_account1_brwn" d="M8.568-39.336H-12.048v6.624h-1.776v1.872h1.776v3.312h-1.776v1.872h1.776v3.312h-1.776v1.872h1.776v3.312h-1.776v1.872h1.776v6.624H8.568a5.213,5.213,0,0,0,3.7-1.536,5.233,5.233,0,0,0,1.56-3.72V-34.08a5.233,5.233,0,0,0-1.56-3.72A5.213,5.213,0,0,0,8.568-39.336ZM11.952-13.92a3.4,3.4,0,0,1-3.384,3.384H-10.176v-4.752h1.752V-17.16h-1.752v-3.312h1.752v-1.872h-1.752v-3.312h1.752v-1.872h-1.752V-30.84h1.752v-1.872h-1.752v-4.752H8.568a3.4,3.4,0,0,1,3.384,3.384ZM3.96-24.12a4.54,4.54,0,0,0,1.56-3.432A4.635,4.635,0,0,0,.888-32.184a4.619,4.619,0,0,0-4.632,4.632A4.519,4.519,0,0,0-2.208-24.12a7.483,7.483,0,0,0-2.352,1.7,8.148,8.148,0,0,0-2.208,5.664H-4.9A5.986,5.986,0,0,1,.888-22.92a6,6,0,0,1,5.784,6.168H8.544a8.17,8.17,0,0,0-2.232-5.664A7.483,7.483,0,0,0,3.96-24.12ZM.888-30.312a2.76,2.76,0,0,1,2.76,2.76,2.776,2.776,0,0,1-2.76,2.76,2.76,2.76,0,0,1-2.76-2.76A2.745,2.745,0,0,1,.888-30.312Z" transform="translate(13.824 39.336)" fill="#55514a"/>
</svg>
