<svg xmlns="http://www.w3.org/2000/svg" width="24" height="24" viewBox="0 0 24 24">
  <g id="icn_circle_plus_grn" transform="translate(-1056 -124)">
    <g id="パス_4831" data-name="パス 4831" transform="translate(1056 124)" fill="none">
      <path d="M12,0A12,12,0,1,1,0,12,12,12,0,0,1,12,0Z" stroke="none"/>
      <path d="M 12 1.799999237060547 C 6.375699996948242 1.799999237060547 1.799999237060547 6.375699996948242 1.799999237060547 12 C 1.799999237060547 17.62430000305176 6.375699996948242 22.20000076293945 12 22.20000076293945 C 17.62430000305176 22.20000076293945 22.20000076293945 17.62430000305176 22.20000076293945 12 C 22.20000076293945 6.375699996948242 17.62430000305176 1.799999237060547 12 1.799999237060547 M 12 0 C 18.62742042541504 0 24 5.372579574584961 24 12 C 24 18.62742042541504 18.62742042541504 24 12 24 C 5.372579574584961 24 0 18.62742042541504 0 12 C 0 5.372579574584961 5.372579574584961 0 12 0 Z" stroke="none" fill="#91c4b1"/>
    </g>
    <path id="plus001_-_E03F" data-name="plus001 - E03F" d="M7-14.7H.7V-21H-.7v6.3H-7v1.4H-.7V-7H.7v-6.3H7Z" transform="translate(1068 150)" fill="#91c4b1"/>
  </g>
</svg>
