<svg xmlns="http://www.w3.org/2000/svg" width="45.63" height="50.7" viewBox="0 0 45.63 50.7">
  <path id="icn_account1" d="M20.2-61.737a9.071,9.071,0,0,0-6.357-2.613h-33.93v10.764h-2.73v3.9h2.73v4.524h-2.73v3.9h2.73v4.524h-2.73v3.9h2.73v4.524h-2.73v3.9h2.73V-13.65h33.93A9.071,9.071,0,0,0,20.2-16.263a9.071,9.071,0,0,0,2.613-6.357V-55.38A9.071,9.071,0,0,0,20.2-61.737ZM18.915-22.62a5.06,5.06,0,0,1-5.07,5.07h-30.03v-6.864h2.73v-3.9h-2.73v-4.524h2.73v-3.9h-2.73v-4.524h2.73v-3.9h-2.73v-4.524h2.73v-3.9h-2.73V-60.45h30.03a5.06,5.06,0,0,1,5.07,5.07ZM7.137-39.312a7.828,7.828,0,0,0,2.184-5.46,7.964,7.964,0,0,0-7.956-7.956,7.964,7.964,0,0,0-7.956,7.956,7.828,7.828,0,0,0,2.184,5.46,12.617,12.617,0,0,0-3.354,2.574,13.789,13.789,0,0,0-3.744,9.516h3.9c0-5.3,4.017-9.594,8.97-9.594s8.97,4.29,8.97,9.594h3.9a13.789,13.789,0,0,0-3.744-9.516A12.617,12.617,0,0,0,7.137-39.312ZM1.365-48.828a4.053,4.053,0,0,1,4.056,4.056,4.078,4.078,0,0,1-4.056,4.056,4.078,4.078,0,0,1-4.056-4.056A4.053,4.053,0,0,1,1.365-48.828Z" transform="translate(22.815 64.35)" fill="#fff"/>
</svg>
