<svg xmlns="http://www.w3.org/2000/svg" width="45.474" height="40.953" viewBox="0 0 45.474 40.953">
  <path id="icn_mybox" d="M-22.737-41.118h2.706V-12.54H20.031V-41.118h2.706V-53.493H-22.737Zm2.574-9.8H20.163v7.227H-20.163Zm37.62,35.8H-17.457v-26H17.457ZM-6.237-29.106H6.237a3.95,3.95,0,0,0,3.96-3.96,3.95,3.95,0,0,0-3.96-3.96H-6.237a3.95,3.95,0,0,0-3.96,3.96A3.95,3.95,0,0,0-6.237-29.106Zm0-5.346H6.237a1.373,1.373,0,0,1,1.386,1.386A1.373,1.373,0,0,1,6.237-31.68H-6.237a1.373,1.373,0,0,1-1.386-1.386A1.373,1.373,0,0,1-6.237-34.452Z" transform="translate(22.737 53.493)" fill="#fff"/>
</svg>
