<svg id="グループ_1" data-name="グループ 1" xmlns="http://www.w3.org/2000/svg" width="151.269" height="26.002" viewBox="0 0 151.269 26.002">
  <rect id="長方形_1" data-name="長方形 1" width="13.13" height="3.283" rx="1.642" transform="translate(17.388 14.302)" fill="#ffaf00"/>
  <rect id="長方形_2" data-name="長方形 2" width="13.876" height="3.123" rx="1.562" transform="translate(0 6.621)" fill="#e55d69"/>
  <path id="パス_1" data-name="パス 1" d="M141.256,187.367a.559.559,0,0,0-.558.558v2.008a.559.559,0,0,0,.558.558h9.637a.559.559,0,0,1,.557.558v4.477a1.554,1.554,0,0,1-.394.952l-.5.5a1.55,1.55,0,0,1-.952.394h-8.345a.559.559,0,0,0-.558.558v2.009a.559.559,0,0,0,.558.558h9.638a1.551,1.551,0,0,0,.952-.395l2.335-2.335a1.553,1.553,0,0,0,.394-.952v-8.894a.559.559,0,0,0-.558-.558Z" transform="translate(-140.698 -174.499)" fill="#e55d69"/>
  <path id="長方形_3" data-name="長方形 3" d="M1.562,0H5.377A1.561,1.561,0,0,1,6.938,1.561v0A1.562,1.562,0,0,1,5.376,3.123H1.562A1.562,1.562,0,0,1,0,1.562v0A1.562,1.562,0,0,1,1.562,0Z" transform="translate(32.21 6.621)" fill="#4bab7a"/>
  <path id="パス_2" data-name="パス 2" d="M271.343,171.6a.559.559,0,0,0-.558.558v11.857a1.553,1.553,0,0,1-.394.952l-.5.5a1.55,1.55,0,0,1-.952.394h-8.345a.559.559,0,0,0-.557.558v2.009a.559.559,0,0,0,.557.558h9.638a1.551,1.551,0,0,0,.952-.395l2.335-2.335a1.552,1.552,0,0,0,.394-.952v-13.15a.559.559,0,0,0-.558-.558Z" transform="translate(-227.822 -162.986)" fill="#4bab7a"/>
  <path id="パス_3" data-name="パス 3" d="M571.644,164.221a.559.559,0,0,0-.558.558V168.5a1.549,1.549,0,0,1-.4.951l-.946.943a1.43,1.43,0,0,1-.854.394.517.517,0,0,0-.459.558v2.008a.559.559,0,0,0,.558.558h1.093a1.555,1.555,0,0,0,.952-.394l2.78-2.77a1.548,1.548,0,0,0,.395-.951V167.9a.559.559,0,0,1,.557-.558h5.688a.559.559,0,0,1,.557.558V178.62a1.556,1.556,0,0,1-.394.953l-.5.5a1.55,1.55,0,0,1-.952.395h-7.518a.559.559,0,0,0-.558.558v2.008a.559.559,0,0,0,.558.558h8.811a1.553,1.553,0,0,0,.952-.395l2.334-2.335a1.551,1.551,0,0,0,.395-.952V164.779a.559.559,0,0,0-.558-.558Z" transform="translate(-452.981 -157.6)" fill="#4bab7a"/>
  <path id="パス_4" data-name="パス 4" d="M440.569,164.615a1.553,1.553,0,0,0-.952-.394h-9.638a.559.559,0,0,0-.558.558v2.008a.559.559,0,0,0,.558.558h8.344a1.553,1.553,0,0,1,.952.395l.5.5a1.551,1.551,0,0,1,.394.952V179.92a.559.559,0,0,1-.558.558h-9.637a.559.559,0,0,0-.558.558v2.009a.559.559,0,0,0,.558.558H442.74a.559.559,0,0,0,.558-.558V167.9a1.553,1.553,0,0,0-.394-.952Z" transform="translate(-351.491 -157.6)" fill="#e55d69"/>
  <path id="パス_5" data-name="パス 5" d="M512.934,169.676a1.552,1.552,0,0,1-.952-.394l-3.219-3.218a.559.559,0,0,1,0-.789l1.785-1.785.395-.394.4-.394,1.42-1.42a.559.559,0,0,0,0-.789l-1.916-1.917a1.553,1.553,0,0,0-.952-.394h-1.57a.559.559,0,0,1-.558-.558v-1.117a.559.559,0,0,0-.558-.558H505.2a.559.559,0,0,0-.558.558v1.117a.56.56,0,0,1-.558.558h-5.224a.559.559,0,0,0-.558.558v2.008a.559.559,0,0,0,.558.558h8.9c.307,0,.38.178.163.395l-7.584,7.582a1.553,1.553,0,0,1-.952.394h-.528a.56.56,0,0,0-.558.558v2.008a.56.56,0,0,0,.558.558h1.821a1.554,1.554,0,0,0,.952-.394l2.614-2.613c.217-.217.395-.143.395.164V177a.559.559,0,0,0,.558.558h2.008a.559.559,0,0,0,.558-.558v-6.96c0-.307.177-.38.395-.164l2.531,2.531a1.553,1.553,0,0,0,.952.394H513.3a.56.56,0,0,0,.558-.558v-2.008a.56.56,0,0,0-.558-.558Z" transform="translate(-401.779 -151.561)" fill="#ffaf00"/>
  <path id="パス_6" data-name="パス 6" d="M381.066,146.11h-.85a.561.561,0,0,1-.56-.56,3.892,3.892,0,0,0-3.888-3.887.56.56,0,0,1-.559-.561v-.851a.56.56,0,0,1,.559-.56,5.866,5.866,0,0,1,5.859,5.859.56.56,0,0,1-.56.56" transform="translate(-311.911 -139.691)" fill="#626ba0"/>
  <path id="パス_7" data-name="パス 7" d="M373.509,156.524h-.85a.561.561,0,0,1-.561-.561,2.213,2.213,0,0,0-2.211-2.211.561.561,0,0,1-.56-.56v-.851a.561.561,0,0,1,.56-.56,4.187,4.187,0,0,1,4.182,4.182.561.561,0,0,1-.56.561" transform="translate(-307.617 -148.518)" fill="#626ba0"/>
  <path id="パス_8" data-name="パス 8" d="M336.6,183.6a.343.343,0,0,0,.339-.513l-3.573-8.4a1.3,1.3,0,0,1,.051-1l3.216-5.845a.788.788,0,0,0-.126-.883l-2.334-2.335a1.55,1.55,0,0,0-.952-.394h-9.638a.559.559,0,0,0-.558.558v2.008a.559.559,0,0,0,.558.558h8.344a1.353,1.353,0,0,1,.832.275.7.7,0,0,1,.006.763l-6.382,11.6a1.043,1.043,0,0,1-.826.489h-1.974a.559.559,0,0,0-.558.558v2.008a.559.559,0,0,0,.558.558h3.82a1.043,1.043,0,0,0,.827-.489l2.734-4.97c.148-.269.367-.258.487.025l2.093,4.921a.916.916,0,0,0,.776.513Z" transform="translate(-273.811 -157.6)" fill="#626ba0"/>
  <path id="パス_9" data-name="パス 9" d="M665.618,172.46a.559.559,0,0,0-.557-.558h-8.731a.559.559,0,0,1-.558-.558v-6.565a.56.56,0,0,0-.558-.558h-2.168a.559.559,0,0,0-.558.558v18.258a.559.559,0,0,0,.558.558h2.168a.56.56,0,0,0,.558-.558v-7.294a.559.559,0,0,1,.558-.558h8.731a.559.559,0,0,0,.557-.558Z" transform="translate(-514.349 -157.6)" fill="#626ba0"/>
</svg>
