<svg id="コンポーネント_188_6" data-name="コンポーネント 188 – 6" xmlns="http://www.w3.org/2000/svg" width="68" height="68" viewBox="0 0 68 68">
  <circle id="楕円形_21" data-name="楕円形 21" cx="34" cy="34" r="34" fill="#4b412d" opacity="0.4"/>
  <path id="arrow_menulist" d="M12.317-17.664l-1.633,1.633L-.011-26.726l-10.672,10.7-1.633-1.633L-.011-29.969Z" transform="translate(34 46.5)" fill="#fff"/>
  <path id="パス_4744" data-name="パス 4744" d="M.741-9.49h7.02v1.2H4.966V0H3.536V-8.294H.741Zm9,1.2A4.5,4.5,0,0,1,13.143-9.62a4.5,4.5,0,0,1,3.406,1.326,4.907,4.907,0,0,1,1.274,3.549A4.907,4.907,0,0,1,16.549-1.2,4.5,4.5,0,0,1,13.143.13,4.5,4.5,0,0,1,9.737-1.2,4.907,4.907,0,0,1,8.463-4.745,4.907,4.907,0,0,1,9.737-8.294ZM10.8-2.035a2.978,2.978,0,0,0,2.34.995,2.978,2.978,0,0,0,2.34-.995,3.934,3.934,0,0,0,.884-2.71,3.934,3.934,0,0,0-.884-2.711,2.978,2.978,0,0,0-2.34-.995,2.978,2.978,0,0,0-2.34.995,3.934,3.934,0,0,0-.884,2.711A3.934,3.934,0,0,0,10.8-2.035Zm10-1.54V0H19.37V-9.425a20.041,20.041,0,0,1,2.86-.195,4.188,4.188,0,0,1,2.717.76A2.646,2.646,0,0,1,25.87-6.7q0,3.185-3.64,3.185Q21.541-3.51,20.8-3.575Zm0-1.157a8.216,8.216,0,0,0,1.3.1,2.706,2.706,0,0,0,1.755-.5,1.751,1.751,0,0,0,.611-1.437,1.73,1.73,0,0,0-.6-1.424A2.748,2.748,0,0,0,22.1-8.476a8.181,8.181,0,0,0-1.3.091Z" transform="translate(21 52)" fill="#fff"/>
</svg>
